<svg width="18" height="18" viewBox="0 0 18 18" fill="none" xmlns="http://www.w3.org/2000/svg">
<path d="M4.1271 3.47028L4.125 5.0625V12.9407C4.125 14.2868 5.2163 15.3782 6.5625 15.3782L13.0247 15.3784C12.793 16.0337 12.168 16.5032 11.4333 16.5032H6.5625C4.59499 16.5032 3 14.9082 3 12.9407V5.0625C3 4.32697 3.47059 3.70134 4.1271 3.47028ZM9.8463 1.5C10.294 1.5 10.7234 1.67792 11.0399 1.9946L14.5037 5.46041C14.8199 5.77685 14.9976 6.20591 14.9976 6.6533V12.9407C14.9976 13.8727 14.2421 14.6282 13.3101 14.6282H6.56431C5.63233 14.6282 4.87681 13.8727 4.87681 12.9407V3.1875C4.87681 2.25552 5.63233 1.5 6.56431 1.5H9.8463ZM9.74955 2.625H6.56431C6.25364 2.625 6.00181 2.87684 6.00181 3.1875V12.9407C6.00181 13.2513 6.25364 13.5032 6.56431 13.5032H13.3101C13.6207 13.5032 13.8726 13.2513 13.8726 12.9407L13.8723 6.75225L11.4375 6.75292C10.5443 6.75292 9.8133 6.05905 9.7539 5.18096L9.75 5.06542L9.74955 2.625ZM10.8745 3.42075L10.875 5.06542C10.875 5.35019 11.0866 5.58554 11.3611 5.62278L11.4375 5.62792L13.0803 5.62725L10.8745 3.42075Z" fill="#99A4AF"/>
</svg>
