<svg width="32" height="24" viewBox="0 0 32 24" fill="none" xmlns="http://www.w3.org/2000/svg">
<g clip-path="url(#clip0_268_43297)">
<path d="M-8.03198 0H40.097V24.0645H-8.03198V0Z" fill="#000066"/>
<path d="M-8.03198 0V2.69047L34.7162 24.0646H40.097V21.3742L-2.65119 0H-8.03198ZM40.097 0V2.69042L-2.65119 24.0645H-8.03198V21.374L34.7162 0H40.097Z" fill="white"/>
<path d="M12.0217 0V24.0645H20.0432V0H12.0217ZM-8.03198 8.02149V16.043H40.097V8.02149H-8.03198Z" fill="white"/>
<path d="M-8.03198 9.62579V14.4387H40.097V9.62579H-8.03198ZM13.6261 0V24.0645H18.4389V0H13.6261ZM-8.03198 24.0645L8.011 16.043H11.5982L-4.44475 24.0645H-8.03198ZM-8.03198 0L8.011 8.02149H4.42377L-8.03198 1.79371V0ZM20.4667 8.02149L36.5097 0H40.097L24.054 8.02149H20.4667ZM40.097 24.0645L24.054 16.043H27.6412L40.097 22.2709V24.0645Z" fill="#CC0000"/>
</g>
<defs>
<clipPath id="clip0_268_43297">
<rect width="32" height="24" fill="white"/>
</clipPath>
</defs>
</svg>
