<svg width="32" height="24" viewBox="0 0 32 24" fill="none" xmlns="http://www.w3.org/2000/svg">
<g clip-path="url(#clip0_268_43298)">
<path d="M12.8 0H32V24H12.8V0Z" fill="#FF0000"/>
<path d="M0 0H12.8V24H0V0Z" fill="#006600"/>
<path fill-rule="evenodd" clip-rule="evenodd" d="M16.9729 15.3088C15.3617 15.2603 7.97338 10.6486 7.92273 9.91416L8.33073 9.23376C9.06358 10.2986 16.6166 14.7837 17.3585 14.6248L16.9729 15.3086" fill="#FFFF00"/>
<path d="M16.9729 15.3088C15.3617 15.2603 7.97338 10.6486 7.92273 9.91416L8.33073 9.23376C9.06358 10.2986 16.6166 14.7837 17.3585 14.6248L16.9729 15.3086" stroke="black" stroke-width="0.08" stroke-linecap="round" stroke-linejoin="round"/>
<path fill-rule="evenodd" clip-rule="evenodd" d="M8.24479 9.1413C8.10029 9.5303 10.1728 10.8116 12.6663 12.3281C15.1598 13.8446 17.3098 14.7818 17.4691 14.6474C17.4788 14.63 17.5476 14.5119 17.5412 14.5128C17.5113 14.5578 17.4386 14.572 17.3252 14.5393C16.6515 14.345 14.8945 13.5385 12.7186 12.219C10.5427 10.8994 8.64959 9.6833 8.35534 9.16665C8.33484 9.13085 8.32034 9.0655 8.32324 9.01465H8.31609L8.25344 9.12415L8.24479 9.14125V9.1413ZM17.0106 15.3301C16.9833 15.3796 16.9324 15.3813 16.8356 15.3707C16.233 15.304 14.4042 14.4147 12.2403 13.1193C9.72244 11.6121 7.64299 10.2388 7.86859 9.8798L7.92999 9.7713L7.94209 9.7751C7.73919 10.3833 12.0459 12.8459 12.2995 13.0029C14.7915 14.5468 16.8923 15.4483 17.0782 15.214L17.0106 15.3303V15.3302L17.0106 15.3301Z" fill="#FFFF00" stroke="black" stroke-width="0.08" stroke-linecap="round" stroke-linejoin="round"/>
<path fill-rule="evenodd" clip-rule="evenodd" d="M12.8091 10.359C14.4218 10.3462 16.4118 10.1385 17.5571 9.68219L17.3103 9.28129C16.6334 9.65594 14.6324 9.90229 12.7955 9.93914C10.6229 9.91914 9.08931 9.71684 8.32101 9.20129L8.08801 9.62819C9.50051 10.2259 10.9479 10.3528 12.8091 10.359" fill="#FFFF00"/>
<path d="M12.8091 10.359C14.4218 10.3462 16.4118 10.1385 17.5571 9.68219L17.3103 9.28129C16.6334 9.65594 14.6324 9.90229 12.7955 9.93914C10.6229 9.91914 9.08931 9.71684 8.32101 9.20129L8.08801 9.62819C9.50051 10.2259 10.9479 10.3528 12.8091 10.359" stroke="black" stroke-width="0.08" stroke-linecap="round" stroke-linejoin="round"/>
<path fill-rule="evenodd" clip-rule="evenodd" d="M17.6235 9.69121C17.584 9.75421 16.8371 10.0118 15.7369 10.2019C14.9909 10.3156 14.0177 10.4129 12.8034 10.414C11.6496 10.4151 10.7071 10.333 9.99355 10.2363C8.83855 10.0552 8.24255 9.80326 8.02215 9.71416C8.04315 9.67226 8.05675 9.64286 8.07705 9.60366C8.71145 9.85631 9.31035 10.0087 10.0119 10.1166C10.7208 10.2126 11.6519 10.2959 12.7999 10.2949C14.0087 10.2936 14.9711 10.189 15.7128 10.0787C16.8411 9.89666 17.4574 9.66246 17.544 9.55366L17.6236 9.69126H17.6235L17.6235 9.69121ZM17.4069 9.28471C17.2846 9.38286 16.6753 9.59896 15.6032 9.77021C14.8877 9.87271 13.978 9.96451 12.8157 9.96561C11.7115 9.96671 10.8094 9.89231 10.1232 9.79236C9.0345 9.65016 8.455 9.39366 8.2461 9.31886C8.2669 9.28286 8.2881 9.24726 8.3098 9.21146C8.4723 9.29326 9.03155 9.52026 10.1352 9.67661C10.8136 9.77281 11.7171 9.84451 12.8158 9.84336C13.9726 9.84221 14.872 9.74866 15.5828 9.64666C16.6605 9.49841 17.2403 9.22281 17.3283 9.15381L17.4069 9.28451V9.28466L17.4069 9.28471ZM7.5136 12.3019C8.5055 12.8354 10.7086 13.1042 12.7933 13.1227C14.6914 13.1257 17.1643 12.8293 18.0891 12.3392L18.0636 11.8053C17.7743 12.2574 15.1243 12.6911 12.7727 12.6733C10.421 12.6556 8.23735 12.2924 7.5094 11.8222L7.5136 12.3017" fill="#FFFF00"/>
<path d="M7.5136 12.3019C8.5055 12.8354 10.7086 13.1042 12.7933 13.1227C14.6914 13.1257 17.1643 12.8293 18.0891 12.3392L18.0636 11.8053C17.7743 12.2574 15.1243 12.6911 12.7727 12.6733C10.421 12.6556 8.23735 12.2924 7.5094 11.8222L7.5136 12.3017M17.6235 9.69121C17.584 9.75421 16.8371 10.0118 15.7369 10.2019C14.9909 10.3156 14.0177 10.4129 12.8034 10.414C11.6496 10.4151 10.7071 10.333 9.99355 10.2363C8.83855 10.0552 8.24255 9.80326 8.02215 9.71416C8.04315 9.67226 8.05675 9.64286 8.07705 9.60366C8.71145 9.85631 9.31035 10.0087 10.0119 10.1166C10.7208 10.2126 11.6519 10.2959 12.7999 10.2949C14.0087 10.2936 14.9711 10.189 15.7128 10.0787C16.8411 9.89666 17.4574 9.66246 17.544 9.55366L17.6236 9.69126H17.6235L17.6235 9.69121ZM17.4069 9.28471C17.2846 9.38286 16.6753 9.59896 15.6032 9.77021C14.8877 9.87271 13.978 9.96451 12.8157 9.96561C11.7115 9.96671 10.8094 9.89231 10.1232 9.79236C9.0345 9.65016 8.455 9.39366 8.2461 9.31886C8.2669 9.28286 8.2881 9.24726 8.3098 9.21146C8.4723 9.29326 9.03155 9.52026 10.1352 9.67661C10.8136 9.77281 11.7171 9.84451 12.8158 9.84336C13.9726 9.84221 14.872 9.74866 15.5828 9.64666C16.6605 9.49841 17.2403 9.22281 17.3283 9.15381L17.4069 9.28451V9.28466L17.4069 9.28471Z" stroke="black" stroke-width="0.08" stroke-linecap="round" stroke-linejoin="round"/>
<path fill-rule="evenodd" clip-rule="evenodd" d="M18.1398 12.225V12.3524C18.0008 12.5186 17.1294 12.7698 16.0365 12.9467C15.2048 13.0742 14.1204 13.1704 12.7692 13.1704C11.4855 13.1704 10.4618 13.0789 9.66797 12.957C8.41297 12.7742 7.61037 12.4542 7.44922 12.3587L7.44997 12.2102C7.93397 12.5319 9.24522 12.7673 9.68547 12.8394C10.4742 12.9604 11.4918 13.0513 12.7691 13.0513C14.114 13.0513 15.1922 12.9558 16.0188 12.8291C16.8028 12.7158 17.9198 12.4212 18.1397 12.2251L18.1398 12.225ZM18.1403 11.7722V11.8995C18.0014 12.0655 17.1299 12.3168 16.0371 12.4936C15.2053 12.6211 14.121 12.7173 12.7698 12.7173C11.4861 12.7173 10.4624 12.6259 9.66852 12.5039C8.41362 12.3213 7.61102 12.0013 7.44982 11.9057L7.45052 11.7572C7.93452 12.0789 9.24577 12.3144 9.68612 12.3863C10.4748 12.5075 11.4924 12.5983 12.7696 12.5983C14.1145 12.5983 15.1928 12.5028 16.0193 12.376C16.8033 12.2628 17.9203 11.9682 18.1402 11.772V11.7722H18.1403ZM12.7889 15.217C10.5077 15.2035 8.55307 14.5953 8.14037 14.4947L8.44137 14.9659C9.17037 15.2726 11.0773 15.7296 12.8108 15.679C14.5443 15.6285 16.0593 15.4942 17.1269 14.9744L17.4355 14.4862C16.7079 14.8288 14.2318 15.2136 12.7888 15.2171" fill="#FFFF00"/>
<path d="M12.7889 15.217C10.5077 15.2035 8.55307 14.5953 8.14037 14.4947L8.44137 14.9659C9.17037 15.2726 11.0773 15.7296 12.8108 15.679C14.5443 15.6285 16.0593 15.4942 17.1269 14.9744L17.4355 14.4862C16.7079 14.8288 14.2318 15.2136 12.7888 15.2171M18.1398 12.225V12.3524C18.0008 12.5186 17.1294 12.7698 16.0365 12.9467C15.2048 13.0742 14.1204 13.1704 12.7692 13.1704C11.4855 13.1704 10.4618 13.0789 9.66797 12.957C8.41297 12.7742 7.61037 12.4542 7.44922 12.3587L7.44997 12.2102C7.93397 12.5319 9.24522 12.7673 9.68547 12.8394C10.4742 12.9604 11.4918 13.0513 12.7691 13.0513C14.114 13.0513 15.1922 12.9558 16.0188 12.8291C16.8028 12.7158 17.9198 12.4212 18.1397 12.2251L18.1398 12.225ZM18.1403 11.7722V11.8995C18.0014 12.0655 17.1299 12.3168 16.0371 12.4936C15.2053 12.6211 14.121 12.7173 12.7698 12.7173C11.4861 12.7173 10.4624 12.6259 9.66852 12.5039C8.41362 12.3213 7.61102 12.0013 7.44982 11.9057L7.45052 11.7572C7.93452 12.0789 9.24577 12.3144 9.68612 12.3863C10.4748 12.5075 11.4924 12.5983 12.7696 12.5983C14.1145 12.5983 15.1928 12.5028 16.0193 12.376C16.8033 12.2628 17.9203 11.9682 18.1402 11.772V11.7722H18.1403Z" stroke="black" stroke-width="0.08" stroke-linecap="round" stroke-linejoin="round"/>
<path fill-rule="evenodd" clip-rule="evenodd" d="M17.2427 14.865C17.1977 14.9339 17.1515 15.002 17.1042 15.0693C16.6007 15.2468 15.8072 15.4333 15.4724 15.4877C14.7884 15.6286 13.7302 15.7327 12.7911 15.7332C10.7703 15.7036 9.1161 15.308 8.33795 14.9705L8.2751 14.8625L8.28535 14.8464L8.39185 14.8877C9.77575 15.3828 11.3301 15.5803 12.8024 15.6158C13.7379 15.6191 14.6742 15.5086 15.4314 15.3732C16.5925 15.1405 17.062 14.9652 17.206 14.8857L17.2427 14.8652L17.2427 14.865ZM17.5103 14.4237C17.5114 14.4251 17.5126 14.4264 17.5138 14.4279C17.4793 14.4861 17.4444 14.5441 17.4091 14.6019C17.1405 14.6979 16.4116 14.9111 15.3473 15.06C14.646 15.1555 14.2101 15.248 12.8151 15.2751C10.201 15.2086 8.50845 14.6974 8.10635 14.5713L8.04675 14.457C9.56175 14.8525 11.1093 15.1287 12.8153 15.1569C14.0915 15.1297 14.6345 15.0357 15.33 14.9409C16.5711 14.7479 17.1965 14.5436 17.3841 14.4846C17.3815 14.4809 17.3788 14.4774 17.3759 14.474L17.5105 14.4237L17.5104 14.4238L17.5103 14.4237Z" fill="#FFFF00" stroke="black" stroke-width="0.08" stroke-linecap="round" stroke-linejoin="round"/>
<path fill-rule="evenodd" clip-rule="evenodd" d="M17.5376 11.8806C17.545 13.3812 16.7771 14.7279 16.1585 15.3219C15.2834 16.1624 14.1232 16.7031 12.7682 16.7279C11.2552 16.7558 9.82845 15.7694 9.44575 15.336C8.6976 14.4888 8.0885 13.4129 8.06895 11.963C8.1616 10.3252 8.80455 9.18431 9.73655 8.40201C10.6686 7.61966 11.9096 7.23861 12.9431 7.26586C14.1354 7.29736 15.5283 7.88236 16.4908 9.04356C17.1213 9.80456 17.3944 10.6302 17.5376 11.8806H17.5376ZM12.781 6.74241C15.6869 6.74241 18.0768 9.10711 18.0768 12.0066C18.0768 14.9059 15.6869 17.2707 12.781 17.2707C9.87515 17.2707 7.505 14.906 7.505 12.0065C7.505 9.10701 9.87515 6.74231 12.781 6.74231" fill="#FFFF00"/>
<path d="M12.781 6.74241C15.6869 6.74241 18.0768 9.10711 18.0768 12.0066C18.0768 14.9059 15.6869 17.2707 12.781 17.2707C9.87515 17.2707 7.505 14.906 7.505 12.0065C7.505 9.10701 9.87515 6.74231 12.781 6.74231M17.5376 11.8806C17.545 13.3812 16.7771 14.7279 16.1585 15.3219C15.2834 16.1624 14.1232 16.7031 12.7682 16.7279C11.2552 16.7558 9.82845 15.7694 9.44575 15.336C8.6976 14.4888 8.0885 13.4129 8.06895 11.963C8.1616 10.3252 8.80455 9.18431 9.73655 8.40201C10.6686 7.61966 11.9096 7.23861 12.9431 7.26586C14.1354 7.29736 15.5283 7.88236 16.4908 9.04356C17.1213 9.80456 17.3944 10.6302 17.5376 11.8806H17.5376Z" stroke="black" stroke-width="0.08" stroke-linecap="round" stroke-linejoin="round"/>
<path fill-rule="evenodd" clip-rule="evenodd" d="M12.7952 6.72429C15.7037 6.72429 18.0758 9.09679 18.0758 12.0055C18.0758 14.9141 15.7037 17.2865 12.7952 17.2865C9.88675 17.2865 7.51465 14.9142 7.51465 12.0055C7.51465 9.09669 9.8868 6.72424 12.7952 6.72424V6.72429ZM7.6309 12.0055C7.6309 14.846 9.9634 17.1704 12.7952 17.1704C15.6271 17.1704 17.9597 14.846 17.9597 12.0055C17.9597 9.16479 15.627 6.84049 12.7952 6.84049C9.96345 6.84049 7.6309 9.16499 7.6309 12.0055V12.0055Z" fill="#FFFF00" stroke="black" stroke-width="0.08" stroke-linecap="round" stroke-linejoin="round"/>
<path fill-rule="evenodd" clip-rule="evenodd" d="M12.7995 7.16321C15.4518 7.16321 17.6365 9.34031 17.6365 12.0007C17.6365 14.6612 15.4518 16.8382 12.7995 16.8382C10.1472 16.8382 7.96252 14.6612 7.96252 12.0007C7.96252 9.34031 10.1473 7.16321 12.7995 7.16321ZM8.07867 12.0007C8.07867 14.5972 10.2109 16.722 12.7995 16.722C15.388 16.722 17.5202 14.5973 17.5202 12.0007C17.5202 9.40421 15.3881 7.27941 12.7994 7.27941C10.2108 7.27941 8.07857 9.40416 8.07857 12.0007H8.07867Z" fill="#FFFF00" stroke="black" stroke-width="0.08" stroke-linecap="round" stroke-linejoin="round"/>
<path fill-rule="evenodd" clip-rule="evenodd" d="M13.0123 6.703H12.5598L12.5603 17.3142H13.0144L13.0123 6.703Z" fill="#FFFF00" stroke="black" stroke-width="0.08" stroke-linecap="round" stroke-linejoin="round"/>
<path fill-rule="evenodd" clip-rule="evenodd" d="M12.967 6.64251H13.0821L13.0831 17.3758H12.9678L12.967 6.64246V6.64251ZM12.5178 6.64251H12.6339L12.6341 17.3759H12.5179V6.64251H12.5178Z" fill="#FFFF00" stroke="black" stroke-width="0.08" stroke-linecap="round" stroke-linejoin="round"/>
<path fill-rule="evenodd" clip-rule="evenodd" d="M18.0795 12.2099V11.8176L17.76 11.52L15.9466 11.04L13.3333 10.7733L10.1866 10.9333L7.94663 11.4667L7.49438 11.8017V12.194L8.63998 11.68L11.36 11.2533H13.9733L15.8933 11.4667L17.2266 11.7867L18.0795 12.2099Z" fill="#FFFF00" stroke="black" stroke-width="0.08" stroke-linecap="round" stroke-linejoin="round"/>
<path fill-rule="evenodd" clip-rule="evenodd" d="M12.7974 11.1878C14.0445 11.1855 15.2544 11.306 16.2142 11.4928C17.2045 11.6908 17.9015 11.9385 18.1398 12.2166L18.1395 12.3544C17.8521 12.0083 16.9142 11.7545 16.1918 11.6094C15.2393 11.4242 14.0375 11.3045 12.7973 11.3069C11.4886 11.3093 10.27 11.4332 9.33148 11.6164C8.57848 11.7658 7.57413 12.0626 7.44873 12.3554V12.212C7.51758 12.0094 8.26543 11.7065 9.31453 11.4965C10.2601 11.312 11.481 11.1902 12.7974 11.1879V11.1878ZM12.7979 10.7348C14.045 10.7326 15.255 10.8531 16.2147 11.0399C17.205 11.238 17.902 11.4856 18.1403 11.7637L18.14 11.9014C17.8526 11.5554 16.9148 11.3016 16.1924 11.1566C15.24 10.9712 14.0381 10.8516 12.7979 10.854C11.4892 10.8563 10.2765 10.9804 9.33788 11.1634C8.61118 11.3012 7.56588 11.6098 7.44928 11.9026V11.7591C7.51813 11.5586 8.28108 11.2449 9.31513 11.0436C10.2606 10.8591 11.4815 10.7374 12.7979 10.7349V10.7348ZM12.7723 8.42456C14.7376 8.41476 16.4518 8.69936 17.236 9.10106L17.522 9.59606C16.8404 9.22866 14.9911 8.84666 12.7752 8.90381C10.9697 8.91491 9.04038 9.10256 8.07243 9.61901L8.41393 9.04781C9.20843 8.63581 11.0818 8.42681 12.7724 8.42466" fill="#FFFF00"/>
<path d="M12.7723 8.42456C14.7376 8.41476 16.4518 8.69936 17.236 9.10106L17.522 9.59606C16.8404 9.22866 14.9911 8.84666 12.7752 8.90381C10.9697 8.91491 9.04038 9.10256 8.07243 9.61901L8.41393 9.04781C9.20843 8.63581 11.0818 8.42681 12.7724 8.42466M12.7974 11.1878C14.0445 11.1855 15.2544 11.306 16.2142 11.4928C17.2045 11.6908 17.9015 11.9385 18.1398 12.2166L18.1395 12.3544C17.8521 12.0083 16.9142 11.7545 16.1918 11.6094C15.2393 11.4242 14.0375 11.3045 12.7973 11.3069C11.4886 11.3093 10.27 11.4332 9.33148 11.6164C8.57848 11.7658 7.57413 12.0626 7.44873 12.3554V12.212C7.51758 12.0094 8.26543 11.7065 9.31453 11.4965C10.2601 11.312 11.481 11.1902 12.7974 11.1879V11.1878ZM12.7979 10.7348C14.045 10.7326 15.255 10.8531 16.2147 11.0399C17.205 11.238 17.902 11.4856 18.1403 11.7637L18.14 11.9014C17.8526 11.5554 16.9148 11.3016 16.1924 11.1566C15.24 10.9712 14.0381 10.8516 12.7979 10.854C11.4892 10.8563 10.2765 10.9804 9.33788 11.1634C8.61118 11.3012 7.56588 11.6098 7.44928 11.9026V11.7591C7.51813 11.5586 8.28108 11.2449 9.31513 11.0436C10.2606 10.8591 11.4815 10.7374 12.7979 10.7349V10.7348Z" stroke="black" stroke-width="0.08" stroke-linecap="round" stroke-linejoin="round"/>
<path fill-rule="evenodd" clip-rule="evenodd" d="M12.7984 8.83296C13.9193 8.83006 15.0024 8.89326 15.8638 9.04871C16.666 9.19801 17.431 9.42206 17.5403 9.54256L17.6252 9.69246C17.3592 9.51871 16.6972 9.32531 15.8471 9.16411C14.9935 9.00361 13.9111 8.95051 12.7965 8.95346C11.5312 8.94911 10.5483 9.01596 9.70474 9.16296C8.81259 9.32996 8.19359 9.56846 8.04089 9.68171L8.12399 9.52331C8.42069 9.37191 8.89149 9.18946 9.68259 9.04706C10.5549 8.88771 11.5483 8.83991 12.7984 8.83306V8.83296ZM12.7979 8.38046C13.8706 8.37771 14.9298 8.43746 15.7554 8.58596C16.4065 8.71266 17.0504 8.91056 17.2863 9.08666L17.4103 9.28376C17.1994 9.04936 16.4058 8.82726 15.705 8.70276C14.8858 8.56151 13.8706 8.50561 12.7979 8.49666C11.6722 8.49981 10.6318 8.56876 9.82444 8.71576C9.05429 8.86226 8.55729 9.03586 8.34694 9.17136L8.45609 9.00676C8.74634 8.85396 9.21519 8.71366 9.80559 8.59891C10.6189 8.45081 11.6657 8.38361 12.7981 8.38041L12.7979 8.38046ZM15.4214 14.2005C14.4497 14.0191 13.4764 13.9928 12.7965 14.0008C9.52139 14.0392 8.46339 14.6733 8.33429 14.8653L8.08954 14.4663C8.92339 13.8619 10.7068 13.523 12.8142 13.5576C13.9085 13.5755 14.8528 13.6482 15.6472 13.8021L15.4213 14.2006" fill="#FFFF00"/>
<path d="M15.4214 14.2005C14.4497 14.0191 13.4764 13.9928 12.7965 14.0008C9.52139 14.0392 8.46339 14.6733 8.33429 14.8653L8.08954 14.4663C8.92339 13.8619 10.7068 13.523 12.8142 13.5576C13.9085 13.5755 14.8528 13.6482 15.6472 13.8021L15.4213 14.2006M12.7984 8.83296C13.9193 8.83006 15.0024 8.89326 15.8638 9.04871C16.666 9.19801 17.431 9.42206 17.5403 9.54256L17.6252 9.69246C17.3592 9.51871 16.6972 9.32531 15.8471 9.16411C14.9935 9.00361 13.9111 8.95051 12.7965 8.95346C11.5312 8.94911 10.5483 9.01596 9.70474 9.16296C8.81259 9.32996 8.19359 9.56846 8.04089 9.68171L8.12399 9.52331C8.42069 9.37191 8.89149 9.18946 9.68259 9.04706C10.5549 8.88771 11.5483 8.83991 12.7984 8.83306V8.83296ZM12.7979 8.38046C13.8706 8.37771 14.9298 8.43746 15.7554 8.58596C16.4065 8.71266 17.0504 8.91056 17.2863 9.08666L17.4103 9.28376C17.1994 9.04936 16.4058 8.82726 15.705 8.70276C14.8858 8.56151 13.8706 8.50561 12.7979 8.49666C11.6722 8.49981 10.6318 8.56876 9.82444 8.71576C9.05429 8.86226 8.55729 9.03586 8.34694 9.17136L8.45609 9.00676C8.74634 8.85396 9.21519 8.71366 9.80559 8.59891C10.6189 8.45081 11.6657 8.38361 12.7981 8.38041L12.7979 8.38046Z" stroke="black" stroke-width="0.08" stroke-linecap="round" stroke-linejoin="round"/>
<path fill-rule="evenodd" clip-rule="evenodd" d="M12.7777 13.9445C13.6887 13.9581 14.583 13.9957 15.4462 14.1567L15.3836 14.267C14.5819 14.1191 13.7273 14.0625 12.7808 14.067C11.5721 14.0576 10.3496 14.1705 9.28528 14.476C8.94943 14.5694 8.39348 14.7853 8.33678 14.9638L8.27458 14.8613C8.29258 14.7558 8.62858 14.5369 9.25668 14.3604C10.4758 14.0113 11.6161 13.9524 12.7777 13.9444V13.9446V13.9445ZM12.819 13.486C13.7629 13.5037 14.7376 13.5473 15.6851 13.735L15.6201 13.85C14.7645 13.6801 13.9471 13.6235 12.8246 13.6062C11.6121 13.6084 10.3259 13.6949 9.15643 14.0349C8.77893 14.1449 8.12728 14.3826 8.10553 14.5709L8.04333 14.4607C8.05748 14.2897 8.62158 14.0667 9.12908 13.9191C10.3076 13.5764 11.5971 13.4883 12.8191 13.4861L12.819 13.486Z" fill="#FFFF00" stroke="black" stroke-width="0.08" stroke-linecap="round" stroke-linejoin="round"/>
<path fill-rule="evenodd" clip-rule="evenodd" d="M17.471 14.527L17.0774 15.1375L15.9467 14.1334L13.0134 12.16L9.70667 10.3467L7.98987 9.75946L8.35577 9.08096L8.48002 9.01331L9.54667 9.27996L13.0667 11.0933L15.0934 12.3733L16.8 13.6L17.4934 14.4L17.471 14.527Z" fill="#FFFF00" stroke="black" stroke-width="0.08" stroke-linecap="round" stroke-linejoin="round"/>
<path fill-rule="evenodd" clip-rule="evenodd" d="M7.92807 9.7755C8.22917 9.57125 10.4422 10.557 12.7577 11.9533C15.0671 13.3535 17.2738 14.9358 17.0746 15.2318L17.0091 15.3349L16.9791 15.3586C16.9855 15.354 17.0187 15.3134 16.9758 15.2036C16.8774 14.8799 15.312 13.6308 12.7148 12.0626C10.1828 10.5528 8.07257 9.64275 7.86157 9.90285L7.92807 9.77545V9.7755ZM17.5516 14.5183C17.7419 14.1422 15.6894 12.5959 13.1446 11.0904C10.5411 9.6149 8.66482 8.7464 8.32207 9.0054L8.24597 9.1439C8.24527 9.15155 8.24872 9.1345 8.26482 9.1221C8.32712 9.0677 8.43042 9.07135 8.47702 9.0706C9.06712 9.07935 10.7525 9.855 13.1173 11.2107C14.1535 11.8142 17.4944 13.9569 17.4817 14.5595C17.4826 14.6112 17.486 14.6219 17.4665 14.6475L17.5515 14.5183V14.5181L17.5516 14.5183Z" fill="#FFFF00" stroke="black" stroke-width="0.08" stroke-linecap="round" stroke-linejoin="round"/>
<path d="M9.63197 12.5873C9.63197 13.455 9.98733 14.24 10.563 14.8136C11.1398 15.3884 11.9237 15.7512 12.7929 15.7512C13.6665 15.7512 14.4593 15.3963 15.0337 14.8237C15.6081 14.2512 15.964 13.4609 15.9642 12.5901H15.964V8.3666L9.63123 8.35913L9.63187 12.5873H9.63197Z" fill="white" stroke="black" stroke-width="0.08"/>
<path d="M9.7504 12.5932V12.5956C9.7504 13.4253 10.0939 14.1809 10.6451 14.7295C11.1973 15.279 11.9578 15.6207 12.7898 15.6207C13.6261 15.6207 14.385 15.2815 14.9349 14.734C15.4848 14.1866 15.8255 13.4309 15.8256 12.5983H15.8255V8.50094L9.75398 8.49988L9.75024 12.5932M14.6048 9.72665L14.605 12.3341L14.6028 12.61C14.6028 12.6826 14.5985 12.7653 14.59 12.8358C14.5407 13.2481 14.3511 13.6074 14.0703 13.8869C13.7415 14.2141 13.2879 14.4171 12.7877 14.4171C12.2904 14.4171 11.8471 14.2071 11.5169 13.8785C11.1782 13.5414 10.982 13.0792 10.982 12.6013L10.9813 9.72009L14.6048 9.7266V9.72671V9.72665Z" fill="#FF0000"/>
<path d="M9.7504 12.5932V12.5956C9.7504 13.4253 10.0939 14.1809 10.6451 14.7295C11.1973 15.279 11.9578 15.6207 12.7898 15.6207C13.6261 15.6207 14.385 15.2815 14.9349 14.734C15.4848 14.1866 15.8255 13.4309 15.8256 12.5983H15.8255V8.50094L9.75398 8.49988L9.75024 12.5932M14.6048 9.72665L14.605 12.3341L14.6028 12.61C14.6028 12.6826 14.5985 12.7653 14.59 12.8358C14.5407 13.2481 14.3511 13.6074 14.0703 13.8869C13.7415 14.2141 13.2879 14.4171 12.7877 14.4171C12.2904 14.4171 11.8471 14.2071 11.5169 13.8785C11.1782 13.5414 10.982 13.0792 10.982 12.6013L10.9813 9.72009L14.6048 9.7266V9.72671V9.72665Z" stroke="black" stroke-width="0.08"/>
<path d="M10.1434 9.56965C10.1506 9.27525 10.3595 9.20549 10.361 9.20448C10.3626 9.20341 10.5867 9.27952 10.586 9.57237L10.1434 9.56971" fill="#FFFF00"/>
<path d="M9.96319 9.21021L9.92681 9.54861L10.1476 9.54914C10.1497 9.26914 10.3596 9.22253 10.3647 9.2236C10.3695 9.22338 10.5775 9.28546 10.583 9.54914H10.8044L10.7644 9.20813L9.96324 9.21016V9.21026L9.96319 9.21021ZM9.91199 9.54994H10.8158C10.8348 9.54994 10.8504 9.56877 10.8504 9.59176C10.8504 9.61469 10.8348 9.63336 10.8158 9.63336H9.91199C9.89295 9.63336 9.87732 9.61469 9.87732 9.59176C9.87732 9.56882 9.89295 9.54994 9.91199 9.54994Z" fill="#FFFF00" stroke="black" stroke-width="0.08"/>
<path d="M10.2405 9.54831C10.2415 9.37161 10.3612 9.32164 10.3618 9.32175C10.3618 9.32175 10.4867 9.37327 10.4877 9.54831H10.2405ZM9.93118 9.06937H10.7976C10.8158 9.06937 10.8308 9.08633 10.8308 9.10697C10.8308 9.12761 10.8159 9.14452 10.7976 9.14452H9.93118C9.91294 9.14452 9.89795 9.12767 9.89795 9.10692C9.89795 9.08628 9.91288 9.06932 9.93118 9.06932V9.06937ZM9.94931 9.14511H10.778C10.7954 9.14511 10.8097 9.16201 10.8097 9.18265C10.8097 9.20335 10.7954 9.2202 10.778 9.2202H9.94931C9.93187 9.2202 9.91758 9.20335 9.91758 9.18265C9.91758 9.16201 9.93187 9.14511 9.94931 9.14511ZM10.217 8.58031L10.2825 8.58041V8.62681H10.3302V8.57935L10.3973 8.57961V8.62692H10.445V8.57945H10.5121L10.512 8.68665C10.512 8.70356 10.4985 8.71439 10.4827 8.71439H10.2475C10.2317 8.71439 10.2171 8.7018 10.2171 8.68639L10.2169 8.58025L10.217 8.58031ZM10.4634 8.72377L10.4782 9.06777L10.2487 9.06697L10.2639 8.72287L10.4634 8.72377" fill="#FFFF00"/>
<path d="M10.4634 8.72377L10.4782 9.06777L10.2487 9.06697L10.2639 8.72287L10.4634 8.72377M10.2405 9.54831C10.2415 9.37161 10.3612 9.32164 10.3618 9.32175C10.3618 9.32175 10.4867 9.37327 10.4877 9.54831H10.2405ZM9.93118 9.06937H10.7976C10.8158 9.06937 10.8308 9.08633 10.8308 9.10697C10.8308 9.12761 10.8159 9.14452 10.7976 9.14452H9.93118C9.91294 9.14452 9.89795 9.12767 9.89795 9.10692C9.89795 9.08628 9.91288 9.06932 9.93118 9.06932V9.06937ZM9.94931 9.14511H10.778C10.7954 9.14511 10.8097 9.16201 10.8097 9.18265C10.8097 9.20335 10.7954 9.2202 10.778 9.2202H9.94931C9.93187 9.2202 9.91758 9.20335 9.91758 9.18265C9.91758 9.16201 9.93187 9.14511 9.94931 9.14511V9.14511ZM10.217 8.58031L10.2825 8.58041V8.62681H10.3302V8.57935L10.3973 8.57961V8.62692H10.445V8.57945H10.5121L10.512 8.68665C10.512 8.70356 10.4985 8.71439 10.4827 8.71439H10.2475C10.2317 8.71439 10.2171 8.7018 10.2171 8.68639L10.2169 8.58025L10.217 8.58031Z" stroke="black" stroke-width="0.08"/>
<path d="M10.1835 8.8833L10.1904 9.06879H9.97046L9.97665 8.8833H10.1836H10.1835Z" fill="#FFFF00" stroke="black" stroke-width="0.08"/>
<path d="M10.7493 8.8833L10.7562 9.06879H10.5363L10.5424 8.8833H10.7494H10.7493Z" fill="#FFFF00" stroke="black" stroke-width="0.08"/>
<path d="M9.93604 8.74883L10 8.74899V8.7955H10.0468V8.74792L10.1124 8.74814V8.79561H10.1593V8.74792L10.2249 8.74803L10.2248 8.85534C10.2248 8.87209 10.2114 8.88297 10.1962 8.88297H9.96595C9.95049 8.88297 9.93619 8.87043 9.93619 8.85497L9.93604 8.74883Z" fill="#FFFF00" stroke="black" stroke-width="0.08"/>
<path d="M10.5018 8.74883L10.5658 8.74899V8.7955H10.6126V8.74792L10.6782 8.74814V8.79561H10.7251V8.74792L10.7907 8.74803L10.7906 8.85534C10.7906 8.87209 10.7772 8.88297 10.762 8.88297H10.5318C10.5163 8.88297 10.502 8.87043 10.502 8.85497L10.5018 8.74883Z" fill="#FFFF00" stroke="black" stroke-width="0.08"/>
<path d="M10.3413 8.83259C10.34 8.79915 10.3881 8.79878 10.3875 8.83259V8.91451H10.3413V8.83259Z" fill="black"/>
<path d="M10.057 8.95148C10.0568 8.91916 10.1016 8.91852 10.1011 8.95148V9.01479H10.057V8.95148Z" fill="black"/>
<path d="M10.6246 8.95148C10.6245 8.91916 10.6693 8.91852 10.6687 8.95148V9.01479H10.6246V8.95148Z" fill="black"/>
<path d="M10.1434 12.0401C10.1506 11.7457 10.3595 11.676 10.361 11.6749C10.3626 11.6739 10.5867 11.75 10.586 12.0428L10.1434 12.0402" fill="#FFFF00"/>
<path d="M9.96319 11.6807L9.92681 12.0191L10.1476 12.0196C10.1497 11.7396 10.3596 11.693 10.3647 11.6941C10.3695 11.6938 10.5775 11.7559 10.583 12.0196H10.8044L10.7644 11.6786L9.96324 11.6806V11.6807L9.96319 11.6807ZM9.91199 12.0204H10.8158C10.8348 12.0204 10.8504 12.0392 10.8504 12.0622C10.8504 12.0852 10.8348 12.1038 10.8158 12.1038H9.91199C9.89295 12.1038 9.87732 12.0852 9.87732 12.0622C9.87732 12.0393 9.89295 12.0204 9.91199 12.0204Z" fill="#FFFF00" stroke="black" stroke-width="0.08"/>
<path d="M10.2405 12.0188C10.2415 11.8421 10.3612 11.7921 10.3618 11.7922C10.3618 11.7922 10.4867 11.8437 10.4877 12.0188H10.2405ZM9.93118 11.5398H10.7976C10.8158 11.5398 10.8308 11.5568 10.8308 11.5774C10.8308 11.5981 10.8159 11.615 10.7976 11.615H9.93118C9.91294 11.615 9.89795 11.5981 9.89795 11.5774C9.89795 11.5567 9.91288 11.5398 9.93118 11.5398V11.5398ZM9.94931 11.6156H10.778C10.7954 11.6156 10.8097 11.6325 10.8097 11.6531C10.8097 11.6738 10.7954 11.6907 10.778 11.6907H9.94931C9.93187 11.6907 9.91758 11.6738 9.91758 11.6531C9.91758 11.6325 9.93187 11.6156 9.94931 11.6156ZM10.217 11.0508L10.2825 11.0509V11.0973H10.3302V11.0498L10.3973 11.0501V11.0974H10.445V11.0499H10.5121L10.512 11.1571C10.512 11.174 10.4985 11.1848 10.4827 11.1848H10.2475C10.2317 11.1848 10.2171 11.1723 10.2171 11.1568L10.2169 11.0507L10.217 11.0508ZM10.4634 11.1942L10.4782 11.5382L10.2487 11.5374L10.2639 11.1933L10.4634 11.1942" fill="#FFFF00"/>
<path d="M10.4634 11.1942L10.4782 11.5382L10.2487 11.5374L10.2639 11.1933L10.4634 11.1942M10.2405 12.0188C10.2415 11.8421 10.3612 11.7921 10.3618 11.7922C10.3618 11.7922 10.4867 11.8437 10.4877 12.0188H10.2405ZM9.93118 11.5398H10.7976C10.8158 11.5398 10.8308 11.5568 10.8308 11.5774C10.8308 11.5981 10.8159 11.615 10.7976 11.615H9.93118C9.91294 11.615 9.89795 11.5981 9.89795 11.5774C9.89795 11.5567 9.91288 11.5398 9.93118 11.5398V11.5398ZM9.94931 11.6156H10.778C10.7954 11.6156 10.8097 11.6325 10.8097 11.6531C10.8097 11.6738 10.7954 11.6907 10.778 11.6907H9.94931C9.93187 11.6907 9.91758 11.6738 9.91758 11.6531C9.91758 11.6325 9.93187 11.6156 9.94931 11.6156V11.6156ZM10.217 11.0508L10.2825 11.0509V11.0973H10.3302V11.0498L10.3973 11.0501V11.0974H10.445V11.0499H10.5121L10.512 11.1571C10.512 11.174 10.4985 11.1848 10.4827 11.1848H10.2475C10.2317 11.1848 10.2171 11.1723 10.2171 11.1568L10.2169 11.0507L10.217 11.0508Z" stroke="black" stroke-width="0.08"/>
<path d="M10.1835 11.3538L10.1904 11.5393H9.97046L9.97665 11.3538H10.1836H10.1835Z" fill="#FFFF00" stroke="black" stroke-width="0.08"/>
<path d="M10.7493 11.3538L10.7562 11.5393H10.5363L10.5424 11.3538H10.7494H10.7493Z" fill="#FFFF00" stroke="black" stroke-width="0.08"/>
<path d="M9.93604 11.2193L10 11.2195V11.266H10.0468V11.2184L10.1124 11.2186V11.2661H10.1593V11.2184L10.2249 11.2185L10.2248 11.3258C10.2248 11.3425 10.2114 11.3534 10.1962 11.3534H9.96595C9.95049 11.3534 9.93619 11.3409 9.93619 11.3254L9.93604 11.2193Z" fill="#FFFF00" stroke="black" stroke-width="0.08"/>
<path d="M10.5018 11.2193L10.5658 11.2195V11.266H10.6126V11.2184L10.6782 11.2186V11.2661H10.7251V11.2184L10.7907 11.2185L10.7906 11.3258C10.7906 11.3425 10.7772 11.3534 10.762 11.3534H10.5318C10.5163 11.3534 10.502 11.3409 10.502 11.3254L10.5018 11.2193Z" fill="#FFFF00" stroke="black" stroke-width="0.08"/>
<path d="M10.3413 11.3031C10.34 11.2696 10.3881 11.2692 10.3875 11.3031V11.385H10.3413V11.3031Z" fill="black"/>
<path d="M10.057 11.4219C10.0568 11.3896 10.1016 11.389 10.1011 11.4219V11.4852H10.057V11.4219Z" fill="black"/>
<path d="M10.6246 11.4219C10.6245 11.3896 10.6693 11.389 10.6687 11.4219V11.4852H10.6246V11.4219Z" fill="black"/>
<path d="M11.1067 14.6114C10.9028 14.3989 11.0005 14.2015 11.0009 14.1997C11.0012 14.1978 11.2131 14.0924 11.4204 14.2993L11.1067 14.6115" fill="#FFFF00"/>
<path d="M10.7246 14.4861L10.9391 14.7503L11.095 14.594C10.8978 14.3952 11.0126 14.2134 11.017 14.2106C11.0202 14.207 11.2108 14.1032 11.4018 14.2851L11.5578 14.128L11.2877 13.9161L10.7246 14.486L10.7247 14.4861L10.7246 14.4861ZM10.9296 14.7618L11.5664 14.1205C11.5798 14.1069 11.6042 14.1091 11.6205 14.1253C11.6368 14.1415 11.639 14.1657 11.6256 14.1792L10.9888 14.8206C10.9753 14.8341 10.9511 14.832 10.9348 14.8158C10.9185 14.7997 10.9162 14.7753 10.9296 14.7618Z" fill="#FFFF00" stroke="black" stroke-width="0.08"/>
<path d="M11.1599 14.5276C11.0352 14.4024 11.0841 14.2822 11.0846 14.2819C11.0846 14.2819 11.2092 14.2295 11.334 14.3522L11.1599 14.5276ZM10.6021 14.4096L11.2126 13.7948C11.2254 13.7819 11.248 13.7832 11.2627 13.7977C11.2773 13.8123 11.2788 13.8348 11.2659 13.8477L10.6554 14.4625C10.6426 14.4755 10.62 14.4742 10.6053 14.4596C10.5907 14.4451 10.5892 14.4225 10.6021 14.4096L10.6021 14.4096ZM10.6686 14.4501L11.2525 13.862C11.2648 13.8497 11.2869 13.8514 11.3015 13.866C11.3162 13.8806 11.3181 13.9026 11.3058 13.915L10.7219 14.503C10.7096 14.5154 10.6876 14.5136 10.6729 14.4991C10.6582 14.4845 10.6563 14.4625 10.6686 14.4501ZM10.4565 13.8621L10.5027 13.8158L10.5356 13.8485L10.5692 13.8146L10.5355 13.7812L10.583 13.7338L10.6165 13.7671L10.6502 13.7332L10.6165 13.6997L10.6638 13.6521L10.7398 13.7278C10.7518 13.7397 10.7499 13.7569 10.7388 13.7681L10.5731 13.935C10.562 13.9462 10.5427 13.9477 10.5318 13.9368L10.4563 13.8622L10.4565 13.8621ZM10.7319 13.7884L10.9864 14.0203L10.8241 14.1826L10.5907 13.9293L10.7319 13.7884" fill="#FFFF00"/>
<path d="M10.7319 13.7884L10.9864 14.0203L10.8241 14.1826L10.5907 13.9293L10.7319 13.7884M11.1599 14.5276C11.0352 14.4024 11.0841 14.2822 11.0846 14.2819C11.0846 14.2819 11.2092 14.2295 11.334 14.3522L11.1599 14.5276ZM10.6021 14.4096L11.2126 13.7948C11.2254 13.7819 11.248 13.7832 11.2627 13.7977C11.2773 13.8123 11.2788 13.8348 11.2659 13.8477L10.6554 14.4625C10.6426 14.4755 10.62 14.4742 10.6053 14.4596C10.5907 14.4451 10.5892 14.4225 10.6021 14.4096L10.6021 14.4096ZM10.6686 14.4501L11.2525 13.862C11.2648 13.8497 11.2869 13.8514 11.3015 13.866C11.3162 13.8806 11.3181 13.9026 11.3058 13.915L10.7219 14.503C10.7096 14.5154 10.6876 14.5136 10.6729 14.4991C10.6582 14.4845 10.6563 14.4625 10.6686 14.4501V14.4501ZM10.4565 13.8621L10.5027 13.8158L10.5356 13.8485L10.5692 13.8146L10.5355 13.7812L10.583 13.7338L10.6165 13.7671L10.6502 13.7332L10.6165 13.6997L10.6638 13.6521L10.7398 13.7278C10.7518 13.7397 10.7499 13.7569 10.7388 13.7681L10.5731 13.935C10.562 13.9462 10.5427 13.9477 10.5318 13.9368L10.4563 13.8622L10.4565 13.8621Z" stroke="black" stroke-width="0.08"/>
<path d="M10.6478 14.0995L10.7843 14.2252L10.6293 14.3813L10.502 14.2462L10.6478 14.0994L10.6478 14.0995Z" fill="#FFFF00" stroke="black" stroke-width="0.08"/>
<path d="M11.0465 13.698L11.183 13.8237L11.028 13.9798L10.9007 13.8447L11.0465 13.6979L11.0465 13.698Z" fill="#FFFF00" stroke="black" stroke-width="0.08"/>
<path d="M10.3781 14.1803L10.4233 14.135L10.4563 14.1678L10.4893 14.1346L10.4555 14.1011L10.5019 14.0547L10.5355 14.0881L10.5686 14.0548L10.5348 14.0212L10.5811 13.9748L10.6571 14.0505C10.669 14.0623 10.6673 14.0794 10.6566 14.0902L10.4943 14.2536C10.4834 14.2646 10.4645 14.2659 10.4535 14.255L10.3781 14.1803Z" fill="#FFFF00" stroke="black" stroke-width="0.08"/>
<path d="M10.7768 13.7788L10.822 13.7335L10.855 13.7663L10.8879 13.7331L10.8542 13.6996L10.9005 13.6532L10.9342 13.6866L10.9673 13.6533L10.9335 13.6197L10.9798 13.5733L11.0558 13.649C11.0677 13.6608 11.066 13.6779 11.0553 13.6887L10.893 13.8521C10.8821 13.8631 10.8632 13.8644 10.8522 13.8535L10.7768 13.7788Z" fill="#FFFF00" stroke="black" stroke-width="0.08"/>
<path d="M10.7231 13.9517C10.6984 13.9291 10.7321 13.8947 10.7557 13.9189L10.8138 13.9767L10.7812 14.0094L10.7231 13.9517Z" fill="black"/>
<path d="M10.6072 14.2372C10.5842 14.2146 10.6153 14.1823 10.6383 14.206L10.6832 14.2506L10.6521 14.2818L10.6072 14.2372Z" fill="black"/>
<path d="M11.007 13.8345C10.9839 13.8119 11.0151 13.7796 11.038 13.8033L11.083 13.8479L11.0519 13.8791L11.007 13.8345Z" fill="black"/>
<path d="M12.5815 9.56965C12.5887 9.27525 12.7977 9.20549 12.7991 9.20448C12.8007 9.20341 13.0249 9.27952 13.0241 9.57237L12.5815 9.56971" fill="#FFFF00"/>
<path d="M12.4013 9.21021L12.3649 9.54861L12.5857 9.54914C12.5879 9.26914 12.7977 9.22253 12.8028 9.2236C12.8076 9.22338 13.0156 9.28546 13.0211 9.54914H13.2425L13.2025 9.20813L12.4014 9.21016V9.21026L12.4013 9.21021ZM12.3501 9.54994H13.2539C13.2729 9.54994 13.2886 9.56877 13.2886 9.59176C13.2886 9.61469 13.2729 9.63336 13.2539 9.63336H12.3501C12.3311 9.63336 12.3154 9.61469 12.3154 9.59176C12.3154 9.56882 12.3311 9.54994 12.3501 9.54994Z" fill="#FFFF00" stroke="black" stroke-width="0.08"/>
<path d="M12.6786 9.54831C12.6796 9.37161 12.7993 9.32164 12.7999 9.32175C12.7999 9.32175 12.9248 9.37327 12.9258 9.54831H12.6786ZM12.3693 9.06937H13.2357C13.2539 9.06937 13.2689 9.08633 13.2689 9.10697C13.2689 9.12761 13.254 9.14452 13.2357 9.14452H12.3693C12.351 9.14452 12.3361 9.12767 12.3361 9.10692C12.3361 9.08628 12.351 9.06932 12.3693 9.06932V9.06937ZM12.3874 9.14511H13.2161C13.2336 9.14511 13.2478 9.16201 13.2478 9.18265C13.2478 9.20335 13.2336 9.2202 13.2161 9.2202H12.3874C12.37 9.2202 12.3557 9.20335 12.3557 9.18265C12.3557 9.16201 12.37 9.14511 12.3874 9.14511ZM12.6552 8.58031L12.7206 8.58041V8.62681H12.7683V8.57935L12.8354 8.57961V8.62692H12.8832V8.57945H12.9502L12.9501 8.68665C12.9501 8.70356 12.9366 8.71439 12.9208 8.71439H12.6856C12.6698 8.71439 12.6552 8.7018 12.6552 8.68639L12.655 8.58025L12.6552 8.58031ZM12.9016 8.72377L12.9163 9.06777L12.6868 9.06697L12.702 8.72287L12.9015 8.72377" fill="#FFFF00"/>
<path d="M12.9016 8.72377L12.9163 9.06777L12.6868 9.06697L12.702 8.72287L12.9015 8.72377M12.6786 9.54831C12.6796 9.37161 12.7993 9.32164 12.7999 9.32175C12.7999 9.32175 12.9248 9.37327 12.9258 9.54831H12.6786ZM12.3693 9.06937H13.2357C13.2539 9.06937 13.2689 9.08633 13.2689 9.10697C13.2689 9.12761 13.254 9.14452 13.2357 9.14452H12.3693C12.351 9.14452 12.3361 9.12767 12.3361 9.10692C12.3361 9.08628 12.351 9.06932 12.3693 9.06932V9.06937ZM12.3874 9.14511H13.2161C13.2336 9.14511 13.2478 9.16201 13.2478 9.18265C13.2478 9.20335 13.2336 9.2202 13.2161 9.2202H12.3874C12.37 9.2202 12.3557 9.20335 12.3557 9.18265C12.3557 9.16201 12.37 9.14511 12.3874 9.14511V9.14511ZM12.6552 8.58031L12.7206 8.58041V8.62681H12.7683V8.57935L12.8354 8.57961V8.62692H12.8832V8.57945H12.9502L12.9501 8.68665C12.9501 8.70356 12.9366 8.71439 12.9208 8.71439H12.6856C12.6698 8.71439 12.6552 8.7018 12.6552 8.68639L12.655 8.58025L12.6552 8.58031Z" stroke="black" stroke-width="0.08"/>
<path d="M12.6216 8.8833L12.6285 9.06879H12.4086L12.4148 8.8833H12.6217H12.6216Z" fill="#FFFF00" stroke="black" stroke-width="0.08"/>
<path d="M13.1874 8.8833L13.1943 9.06879H12.9744L12.9806 8.8833H13.1875H13.1874Z" fill="#FFFF00" stroke="black" stroke-width="0.08"/>
<path d="M12.3741 8.74883L12.4381 8.74899V8.7955H12.4849V8.74792L12.5505 8.74814V8.79561H12.5975V8.74792L12.6631 8.74803L12.6629 8.85534C12.6629 8.87209 12.6496 8.88297 12.6343 8.88297H12.4041C12.3886 8.88297 12.3743 8.87043 12.3743 8.85497L12.3741 8.74883Z" fill="#FFFF00" stroke="black" stroke-width="0.08"/>
<path d="M12.9399 8.74883L13.0039 8.74899V8.7955H13.0507V8.74792L13.1163 8.74814V8.79561H13.1632V8.74792L13.2288 8.74803L13.2287 8.85534C13.2287 8.87209 13.2154 8.88297 13.2001 8.88297H12.9699C12.9544 8.88297 12.9401 8.87043 12.9401 8.85497L12.9399 8.74883Z" fill="#FFFF00" stroke="black" stroke-width="0.08"/>
<path d="M12.7794 8.83259C12.7781 8.79915 12.8262 8.79878 12.8256 8.83259V8.91451H12.7794V8.83259Z" fill="black"/>
<path d="M12.4951 8.95148C12.495 8.91916 12.5398 8.91852 12.5392 8.95148V9.01479H12.4951V8.95148Z" fill="black"/>
<path d="M13.0627 8.95148C13.0626 8.91916 13.1074 8.91852 13.1068 8.95148V9.01479H13.0627V8.95148Z" fill="black"/>
<path d="M15.4454 9.56965C15.4382 9.27525 15.2293 9.20549 15.2278 9.20448C15.2262 9.20341 15.0021 9.27952 15.0029 9.57237L15.4454 9.56971" fill="#FFFF00"/>
<path d="M15.6257 9.21021L15.6621 9.54861L15.4413 9.54914C15.4391 9.26914 15.2293 9.22253 15.2242 9.2236C15.2194 9.22338 15.0114 9.28546 15.0059 9.54914H14.7845L14.8245 9.20813L15.6256 9.21016V9.21026L15.6257 9.21021ZM15.6769 9.54994H14.7731C14.7541 9.54994 14.7384 9.56877 14.7384 9.59176C14.7384 9.61469 14.7541 9.63336 14.7731 9.63336H15.6769C15.6959 9.63336 15.7115 9.61469 15.7115 9.59176C15.7115 9.56882 15.6959 9.54994 15.6769 9.54994Z" fill="#FFFF00" stroke="black" stroke-width="0.08"/>
<path d="M15.3484 9.54831C15.3474 9.37161 15.2277 9.32164 15.2271 9.32175C15.2271 9.32175 15.1022 9.37327 15.1012 9.54831H15.3484ZM15.6577 9.06937H14.7913C14.773 9.06937 14.7581 9.08633 14.7581 9.10697C14.7581 9.12761 14.773 9.14452 14.7913 9.14452H15.6577C15.6759 9.14452 15.6909 9.12767 15.6909 9.10692C15.6909 9.08628 15.676 9.06932 15.6577 9.06932V9.06937ZM15.6396 9.14511H14.8109C14.7934 9.14511 14.7791 9.16201 14.7791 9.18265C14.7791 9.20335 14.7934 9.2202 14.8109 9.2202H15.6396C15.657 9.2202 15.6713 9.20335 15.6713 9.18265C15.6713 9.16201 15.657 9.14511 15.6396 9.14511ZM15.3718 8.58031L15.3064 8.58041V8.62681H15.2587V8.57935L15.1916 8.57961V8.62692H15.1438V8.57945H15.0767L15.0768 8.68665C15.0768 8.70356 15.0904 8.71439 15.1062 8.71439H15.3414C15.3572 8.71439 15.3718 8.7018 15.3718 8.68639L15.372 8.58025L15.3718 8.58031ZM15.1254 8.72377L15.1107 9.06777L15.3401 9.06697L15.3249 8.72287L15.1255 8.72377" fill="#FFFF00"/>
<path d="M15.1254 8.72377L15.1107 9.06777L15.3401 9.06697L15.3249 8.72287L15.1255 8.72377M15.3484 9.54831C15.3474 9.37161 15.2277 9.32164 15.2271 9.32175C15.2271 9.32175 15.1022 9.37327 15.1012 9.54831H15.3484ZM15.6577 9.06937H14.7913C14.773 9.06937 14.7581 9.08633 14.7581 9.10697C14.7581 9.12761 14.773 9.14452 14.7913 9.14452H15.6577C15.6759 9.14452 15.6909 9.12767 15.6909 9.10692C15.6909 9.08628 15.676 9.06932 15.6577 9.06932V9.06937ZM15.6396 9.14511H14.8109C14.7934 9.14511 14.7791 9.16201 14.7791 9.18265C14.7791 9.20335 14.7934 9.2202 14.8109 9.2202H15.6396C15.657 9.2202 15.6713 9.20335 15.6713 9.18265C15.6713 9.16201 15.657 9.14511 15.6396 9.14511V9.14511ZM15.3718 8.58031L15.3064 8.58041V8.62681H15.2587V8.57935L15.1916 8.57961V8.62692H15.1438V8.57945H15.0767L15.0768 8.68665C15.0768 8.70356 15.0904 8.71439 15.1062 8.71439H15.3414C15.3572 8.71439 15.3718 8.7018 15.3718 8.68639L15.372 8.58025L15.3718 8.58031Z" stroke="black" stroke-width="0.08"/>
<path d="M15.4054 8.8833L15.3985 9.06879H15.6184L15.6122 8.8833H15.4053H15.4054Z" fill="#FFFF00" stroke="black" stroke-width="0.08"/>
<path d="M14.8396 8.8833L14.8327 9.06879H15.0526L15.0464 8.8833H14.8395H14.8396Z" fill="#FFFF00" stroke="black" stroke-width="0.08"/>
<path d="M15.6528 8.74883L15.5888 8.74899V8.7955H15.5421V8.74792L15.4765 8.74814V8.79561H15.4295V8.74792L15.3639 8.74803L15.3641 8.85534C15.3641 8.87209 15.3774 8.88297 15.3927 8.88297H15.6229C15.6384 8.88297 15.6527 8.87043 15.6527 8.85497L15.6528 8.74883Z" fill="#FFFF00" stroke="black" stroke-width="0.08"/>
<path d="M15.087 8.74883L15.023 8.74899V8.7955H14.9763V8.74792L14.9107 8.74814V8.79561H14.8637V8.74792L14.7981 8.74803L14.7983 8.85534C14.7983 8.87209 14.8116 8.88297 14.8269 8.88297H15.0571C15.0726 8.88297 15.0869 8.87043 15.0869 8.85497L15.087 8.74883Z" fill="#FFFF00" stroke="black" stroke-width="0.08"/>
<path d="M15.2475 8.83259C15.2489 8.79915 15.2008 8.79878 15.2013 8.83259V8.91451H15.2475V8.83259Z" fill="black"/>
<path d="M15.5319 8.95148C15.532 8.91916 15.4872 8.91852 15.4878 8.95148V9.01479H15.5319V8.95148Z" fill="black"/>
<path d="M14.9642 8.95148C14.9644 8.91916 14.9196 8.91852 14.9202 8.95148V9.01479H14.9642V8.95148Z" fill="black"/>
<path d="M15.4454 12.0401C15.4382 11.7457 15.2293 11.676 15.2278 11.6749C15.2262 11.6739 15.0021 11.75 15.0029 12.0428L15.4454 12.0402" fill="#FFFF00"/>
<path d="M15.6257 11.6807L15.6621 12.0191L15.4413 12.0196C15.4391 11.7396 15.2293 11.693 15.2242 11.6941C15.2194 11.6938 15.0114 11.7559 15.0059 12.0196H14.7845L14.8245 11.6786L15.6256 11.6806V11.6807L15.6257 11.6807ZM15.6769 12.0204H14.7731C14.7541 12.0204 14.7384 12.0392 14.7384 12.0622C14.7384 12.0852 14.7541 12.1038 14.7731 12.1038H15.6769C15.6959 12.1038 15.7115 12.0852 15.7115 12.0622C15.7115 12.0393 15.6959 12.0204 15.6769 12.0204Z" fill="#FFFF00" stroke="black" stroke-width="0.08"/>
<path d="M15.3484 12.0188C15.3474 11.8421 15.2277 11.7921 15.2271 11.7922C15.2271 11.7922 15.1022 11.8437 15.1012 12.0188H15.3484ZM15.6577 11.5398H14.7913C14.773 11.5398 14.7581 11.5568 14.7581 11.5774C14.7581 11.5981 14.773 11.615 14.7913 11.615H15.6577C15.6759 11.615 15.6909 11.5981 15.6909 11.5774C15.6909 11.5567 15.676 11.5398 15.6577 11.5398V11.5398ZM15.6396 11.6156H14.8109C14.7934 11.6156 14.7791 11.6325 14.7791 11.6531C14.7791 11.6738 14.7934 11.6907 14.8109 11.6907H15.6396C15.657 11.6907 15.6713 11.6738 15.6713 11.6531C15.6713 11.6325 15.657 11.6156 15.6396 11.6156ZM15.3718 11.0508L15.3064 11.0509V11.0973H15.2587V11.0498L15.1916 11.0501V11.0974H15.1438V11.0499H15.0767L15.0768 11.1571C15.0768 11.174 15.0904 11.1848 15.1062 11.1848H15.3414C15.3572 11.1848 15.3718 11.1723 15.3718 11.1568L15.372 11.0507L15.3718 11.0508ZM15.1254 11.1942L15.1107 11.5382L15.3401 11.5374L15.3249 11.1933L15.1255 11.1942" fill="#FFFF00"/>
<path d="M15.1254 11.1942L15.1107 11.5382L15.3401 11.5374L15.3249 11.1933L15.1255 11.1942M15.3484 12.0188C15.3474 11.8421 15.2277 11.7921 15.2271 11.7922C15.2271 11.7922 15.1022 11.8437 15.1012 12.0188H15.3484ZM15.6577 11.5398H14.7913C14.773 11.5398 14.7581 11.5568 14.7581 11.5774C14.7581 11.5981 14.773 11.615 14.7913 11.615H15.6577C15.6759 11.615 15.6909 11.5981 15.6909 11.5774C15.6909 11.5567 15.676 11.5398 15.6577 11.5398V11.5398ZM15.6396 11.6156H14.8109C14.7934 11.6156 14.7791 11.6325 14.7791 11.6531C14.7791 11.6738 14.7934 11.6907 14.8109 11.6907H15.6396C15.657 11.6907 15.6713 11.6738 15.6713 11.6531C15.6713 11.6325 15.657 11.6156 15.6396 11.6156V11.6156ZM15.3718 11.0508L15.3064 11.0509V11.0973H15.2587V11.0498L15.1916 11.0501V11.0974H15.1438V11.0499H15.0767L15.0768 11.1571C15.0768 11.174 15.0904 11.1848 15.1062 11.1848H15.3414C15.3572 11.1848 15.3718 11.1723 15.3718 11.1568L15.372 11.0507L15.3718 11.0508Z" stroke="black" stroke-width="0.08"/>
<path d="M15.4054 11.3538L15.3985 11.5393H15.6184L15.6122 11.3538H15.4053H15.4054Z" fill="#FFFF00" stroke="black" stroke-width="0.08"/>
<path d="M14.8396 11.3538L14.8327 11.5393H15.0526L15.0464 11.3538H14.8395H14.8396Z" fill="#FFFF00" stroke="black" stroke-width="0.08"/>
<path d="M15.6528 11.2193L15.5888 11.2195V11.266H15.5421V11.2184L15.4765 11.2186V11.2661H15.4295V11.2184L15.3639 11.2185L15.3641 11.3258C15.3641 11.3425 15.3774 11.3534 15.3927 11.3534H15.6229C15.6384 11.3534 15.6527 11.3409 15.6527 11.3254L15.6528 11.2193Z" fill="#FFFF00" stroke="black" stroke-width="0.08"/>
<path d="M15.087 11.2193L15.023 11.2195V11.266H14.9763V11.2184L14.9107 11.2186V11.2661H14.8637V11.2184L14.7981 11.2185L14.7983 11.3258C14.7983 11.3425 14.8116 11.3534 14.8269 11.3534H15.0571C15.0726 11.3534 15.0869 11.3409 15.0869 11.3254L15.087 11.2193Z" fill="#FFFF00" stroke="black" stroke-width="0.08"/>
<path d="M15.2475 11.3031C15.2489 11.2696 15.2008 11.2692 15.2013 11.3031V11.385H15.2475V11.3031Z" fill="black"/>
<path d="M15.5319 11.4219C15.532 11.3896 15.4872 11.389 15.4878 11.4219V11.4852H15.5319V11.4219Z" fill="black"/>
<path d="M14.9642 11.4219C14.9644 11.3896 14.9196 11.389 14.9202 11.4219V11.4852H14.9642V11.4219Z" fill="black"/>
<path d="M14.4822 14.6114C14.686 14.3989 14.5883 14.2015 14.588 14.1997C14.5876 14.1978 14.3757 14.0924 14.1684 14.2993L14.4822 14.6115" fill="#FFFF00"/>
<path d="M14.8643 14.4861L14.6498 14.7503L14.4938 14.594C14.691 14.3952 14.5762 14.2134 14.5719 14.2106C14.5687 14.207 14.3781 14.1032 14.1871 14.2851L14.031 14.128L14.3012 13.9161L14.8643 14.486L14.8642 14.4861L14.8643 14.4861ZM14.6593 14.7618L14.0225 14.1205C14.0091 14.1069 13.9847 14.1091 13.9684 14.1253C13.9521 14.1415 13.9499 14.1657 13.9633 14.1792L14.6001 14.8206C14.6135 14.8341 14.6378 14.832 14.654 14.8158C14.6703 14.7997 14.6727 14.7753 14.6593 14.7618Z" fill="#FFFF00" stroke="black" stroke-width="0.08"/>
<path d="M14.429 14.5276C14.5537 14.4024 14.5048 14.2822 14.5043 14.2819C14.5043 14.2819 14.3797 14.2295 14.2548 14.3522L14.429 14.5276ZM14.9868 14.4096L14.3763 13.7948C14.3634 13.7819 14.3409 13.7832 14.3262 13.7977C14.3116 13.8123 14.3101 13.8348 14.323 13.8477L14.9335 14.4625C14.9463 14.4755 14.9688 14.4742 14.9835 14.4596C14.9982 14.4451 14.9997 14.4225 14.9868 14.4096L14.9868 14.4096ZM14.9203 14.4501L14.3364 13.862C14.3241 13.8497 14.302 13.8514 14.2873 13.866C14.2727 13.8806 14.2708 13.9026 14.2831 13.915L14.867 14.503C14.8793 14.5154 14.9013 14.5136 14.916 14.4991C14.9306 14.4845 14.9325 14.4625 14.9203 14.4501ZM15.1324 13.8621L15.0862 13.8158L15.0533 13.8485L15.0196 13.8146L15.0533 13.7812L15.0059 13.7338L14.9723 13.7671L14.9387 13.7332L14.9723 13.6997L14.9251 13.6521L14.8491 13.7278C14.8371 13.7397 14.8389 13.7569 14.8501 13.7681L15.0158 13.935C15.0269 13.9462 15.0461 13.9477 15.0571 13.9368L15.1325 13.8622L15.1324 13.8621ZM14.857 13.7884L14.6025 14.0203L14.7647 14.1826L14.9982 13.9293L14.857 13.7884" fill="#FFFF00"/>
<path d="M14.857 13.7884L14.6025 14.0203L14.7647 14.1826L14.9982 13.9293L14.857 13.7884M14.429 14.5276C14.5537 14.4024 14.5048 14.2822 14.5043 14.2819C14.5043 14.2819 14.3797 14.2295 14.2548 14.3522L14.429 14.5276ZM14.9868 14.4096L14.3763 13.7948C14.3634 13.7819 14.3409 13.7832 14.3262 13.7977C14.3116 13.8123 14.3101 13.8348 14.323 13.8477L14.9335 14.4625C14.9463 14.4755 14.9688 14.4742 14.9835 14.4596C14.9982 14.4451 14.9997 14.4225 14.9868 14.4096L14.9868 14.4096ZM14.9203 14.4501L14.3364 13.862C14.3241 13.8497 14.302 13.8514 14.2873 13.866C14.2727 13.8806 14.2708 13.9026 14.2831 13.915L14.867 14.503C14.8793 14.5154 14.9013 14.5136 14.916 14.4991C14.9306 14.4845 14.9325 14.4625 14.9203 14.4501V14.4501ZM15.1324 13.8621L15.0862 13.8158L15.0533 13.8485L15.0196 13.8146L15.0533 13.7812L15.0059 13.7338L14.9723 13.7671L14.9387 13.7332L14.9723 13.6997L14.9251 13.6521L14.8491 13.7278C14.8371 13.7397 14.8389 13.7569 14.8501 13.7681L15.0158 13.935C15.0269 13.9462 15.0461 13.9477 15.0571 13.9368L15.1325 13.8622L15.1324 13.8621Z" stroke="black" stroke-width="0.08"/>
<path d="M14.9411 14.0995L14.8046 14.2252L14.9596 14.3813L15.0868 14.2462L14.941 14.0994L14.9411 14.0995Z" fill="#FFFF00" stroke="black" stroke-width="0.08"/>
<path d="M14.5424 13.698L14.4059 13.8237L14.5609 13.9798L14.6881 13.8447L14.5423 13.6979L14.5424 13.698Z" fill="#FFFF00" stroke="black" stroke-width="0.08"/>
<path d="M15.2108 14.1803L15.1656 14.135L15.1326 14.1678L15.0996 14.1346L15.1334 14.1011L15.087 14.0547L15.0533 14.0881L15.0202 14.0548L15.0541 14.0212L15.0078 13.9748L14.9318 14.0505C14.9199 14.0623 14.9215 14.0794 14.9323 14.0902L15.0945 14.2536C15.1054 14.2646 15.1244 14.2659 15.1354 14.255L15.2108 14.1803Z" fill="#FFFF00" stroke="black" stroke-width="0.08"/>
<path d="M14.8121 13.7788L14.7669 13.7335L14.7339 13.7663L14.7009 13.7331L14.7347 13.6996L14.6883 13.6532L14.6546 13.6866L14.6216 13.6533L14.6554 13.6197L14.6091 13.5733L14.5331 13.649C14.5212 13.6608 14.5229 13.6779 14.5336 13.6887L14.6958 13.8521C14.7067 13.8631 14.7257 13.8644 14.7367 13.8535L14.8121 13.7788Z" fill="#FFFF00" stroke="black" stroke-width="0.08"/>
<path d="M14.8658 13.9517C14.8905 13.9291 14.8568 13.8947 14.8332 13.9189L14.7751 13.9767L14.8076 14.0094L14.8658 13.9517Z" fill="black"/>
<path d="M14.9817 14.2372C15.0047 14.2146 14.9736 14.1823 14.9506 14.206L14.9057 14.2506L14.9367 14.2818L14.9817 14.2372Z" fill="black"/>
<path d="M14.5819 13.8345C14.6049 13.8119 14.5738 13.7796 14.5508 13.8033L14.5059 13.8479L14.5369 13.8791L14.5819 13.8345Z" fill="black"/>
<path d="M12.4073 12.1284V12.1287C12.4068 12.2411 12.449 12.3495 12.5253 12.4321C12.5981 12.5104 12.6983 12.5589 12.808 12.5589C12.9183 12.5589 13.0184 12.5107 13.0909 12.4328C13.1633 12.3549 13.2083 12.2476 13.2083 12.1292V11.5549L12.4087 11.5542L12.4072 12.1283" fill="#003399"/>
<path d="M12.5906 11.8519C12.6344 11.8519 12.6699 11.8164 12.6699 11.7726C12.6699 11.7288 12.6344 11.6934 12.5906 11.6934C12.5468 11.6934 12.5114 11.7288 12.5114 11.7726C12.5114 11.8164 12.5468 11.8519 12.5906 11.8519Z" fill="white"/>
<path d="M13.0342 11.8522C13.078 11.8522 13.1135 11.8168 13.1135 11.773C13.1135 11.7292 13.078 11.6937 13.0342 11.6937C12.9904 11.6937 12.955 11.7292 12.955 11.773C12.955 11.8168 12.9904 11.8522 13.0342 11.8522Z" fill="white"/>
<path d="M12.812 12.0652C12.8558 12.0652 12.8913 12.0298 12.8913 11.986C12.8913 11.9422 12.8558 11.9067 12.812 11.9067C12.7683 11.9067 12.7328 11.9422 12.7328 11.986C12.7328 12.0298 12.7683 12.0652 12.812 12.0652Z" fill="white"/>
<path d="M12.5906 12.2881C12.6344 12.2881 12.6699 12.2527 12.6699 12.2089C12.6699 12.1651 12.6344 12.1296 12.5906 12.1296C12.5468 12.1296 12.5114 12.1651 12.5114 12.2089C12.5114 12.2527 12.5468 12.2881 12.5906 12.2881Z" fill="white"/>
<path d="M13.0338 12.2875C13.0776 12.2875 13.1131 12.2521 13.1131 12.2083C13.1131 12.1645 13.0776 12.129 13.0338 12.129C12.9901 12.129 12.9546 12.1645 12.9546 12.2083C12.9546 12.2521 12.9901 12.2875 13.0338 12.2875Z" fill="white"/>
<path d="M12.4073 10.7409V10.7412C12.4068 10.8536 12.449 10.9621 12.5253 11.0447C12.5981 11.1229 12.6983 11.1715 12.808 11.1715C12.9183 11.1715 13.0184 11.1232 13.0909 11.0454C13.1633 10.9675 13.2083 10.8602 13.2083 10.7417V10.1674L12.4087 10.1667L12.4072 10.7409" fill="#003399"/>
<path d="M12.5906 10.4644C12.6344 10.4644 12.6699 10.4289 12.6699 10.3852C12.6699 10.3414 12.6344 10.3059 12.5906 10.3059C12.5468 10.3059 12.5114 10.3414 12.5114 10.3852C12.5114 10.4289 12.5468 10.4644 12.5906 10.4644Z" fill="white"/>
<path d="M13.0342 10.4648C13.078 10.4648 13.1135 10.4293 13.1135 10.3855C13.1135 10.3418 13.078 10.3063 13.0342 10.3063C12.9904 10.3063 12.955 10.3418 12.955 10.3855C12.955 10.4293 12.9904 10.4648 13.0342 10.4648Z" fill="white"/>
<path d="M12.812 10.6778C12.8558 10.6778 12.8913 10.6423 12.8913 10.5985C12.8913 10.5548 12.8558 10.5193 12.812 10.5193C12.7683 10.5193 12.7328 10.5548 12.7328 10.5985C12.7328 10.6423 12.7683 10.6778 12.812 10.6778Z" fill="white"/>
<path d="M12.5906 10.9007C12.6344 10.9007 12.6699 10.8652 12.6699 10.8214C12.6699 10.7777 12.6344 10.7422 12.5906 10.7422C12.5468 10.7422 12.5114 10.7777 12.5114 10.8214C12.5114 10.8652 12.5468 10.9007 12.5906 10.9007Z" fill="white"/>
<path d="M13.0338 10.9001C13.0776 10.9001 13.1131 10.8646 13.1131 10.8208C13.1131 10.7771 13.0776 10.7416 13.0338 10.7416C12.9901 10.7416 12.9546 10.7771 12.9546 10.8208C12.9546 10.8646 12.9901 10.9001 13.0338 10.9001Z" fill="white"/>
<path d="M11.2979 12.1284V12.1287C11.2975 12.2411 11.3396 12.3495 11.4159 12.4321C11.4887 12.5104 11.5889 12.5589 11.6987 12.5589C11.8089 12.5589 11.909 12.5107 11.9815 12.4328C12.0539 12.3549 12.0989 12.2476 12.0989 12.1292V11.5549L11.2993 11.5542L11.2979 12.1283" fill="#003399"/>
<path d="M11.4812 11.8519C11.525 11.8519 11.5605 11.8164 11.5605 11.7726C11.5605 11.7288 11.525 11.6934 11.4812 11.6934C11.4375 11.6934 11.402 11.7288 11.402 11.7726C11.402 11.8164 11.4375 11.8519 11.4812 11.8519Z" fill="white"/>
<path d="M11.9248 11.8522C11.9686 11.8522 12.0041 11.8168 12.0041 11.773C12.0041 11.7292 11.9686 11.6937 11.9248 11.6937C11.8811 11.6937 11.8456 11.7292 11.8456 11.773C11.8456 11.8168 11.8811 11.8522 11.9248 11.8522Z" fill="white"/>
<path d="M11.7027 12.0652C11.7464 12.0652 11.7819 12.0298 11.7819 11.986C11.7819 11.9422 11.7464 11.9067 11.7027 11.9067C11.6589 11.9067 11.6234 11.9422 11.6234 11.986C11.6234 12.0298 11.6589 12.0652 11.7027 12.0652Z" fill="white"/>
<path d="M11.4812 12.2881C11.525 12.2881 11.5605 12.2527 11.5605 12.2089C11.5605 12.1651 11.525 12.1296 11.4812 12.1296C11.4375 12.1296 11.402 12.1651 11.402 12.2089C11.402 12.2527 11.4375 12.2881 11.4812 12.2881Z" fill="white"/>
<path d="M11.9245 12.2875C11.9682 12.2875 12.0037 12.2521 12.0037 12.2083C12.0037 12.1645 11.9682 12.129 11.9245 12.129C11.8807 12.129 11.8452 12.1645 11.8452 12.2083C11.8452 12.2521 11.8807 12.2875 11.9245 12.2875Z" fill="white"/>
<path d="M13.5136 12.1284V12.1287C13.5132 12.2411 13.5553 12.3495 13.6316 12.4321C13.7044 12.5104 13.8046 12.5589 13.9144 12.5589C14.0246 12.5589 14.1247 12.5107 14.1972 12.4328C14.2696 12.3549 14.3146 12.2476 14.3146 12.1292V11.5549L13.515 11.5542L13.5135 12.1283" fill="#003399"/>
<path d="M13.6969 11.8519C13.7407 11.8519 13.7762 11.8164 13.7762 11.7726C13.7762 11.7288 13.7407 11.6934 13.6969 11.6934C13.6532 11.6934 13.6177 11.7288 13.6177 11.7726C13.6177 11.8164 13.6532 11.8519 13.6969 11.8519Z" fill="white"/>
<path d="M14.1405 11.8522C14.1843 11.8522 14.2198 11.8168 14.2198 11.773C14.2198 11.7292 14.1843 11.6937 14.1405 11.6937C14.0968 11.6937 14.0613 11.7292 14.0613 11.773C14.0613 11.8168 14.0968 11.8522 14.1405 11.8522Z" fill="white"/>
<path d="M13.9184 12.0652C13.9621 12.0652 13.9976 12.0298 13.9976 11.986C13.9976 11.9422 13.9621 11.9067 13.9184 11.9067C13.8746 11.9067 13.8391 11.9422 13.8391 11.986C13.8391 12.0298 13.8746 12.0652 13.9184 12.0652Z" fill="white"/>
<path d="M13.6969 12.2881C13.7407 12.2881 13.7762 12.2527 13.7762 12.2089C13.7762 12.1651 13.7407 12.1296 13.6969 12.1296C13.6532 12.1296 13.6177 12.1651 13.6177 12.2089C13.6177 12.2527 13.6532 12.2881 13.6969 12.2881Z" fill="white"/>
<path d="M14.1402 12.2875C14.1839 12.2875 14.2194 12.2521 14.2194 12.2083C14.2194 12.1645 14.1839 12.129 14.1402 12.129C14.0964 12.129 14.0609 12.1645 14.0609 12.2083C14.0609 12.2521 14.0964 12.2875 14.1402 12.2875Z" fill="white"/>
<path d="M12.4073 13.5036V13.5039C12.4068 13.6163 12.449 13.7248 12.5253 13.8074C12.5981 13.8856 12.6983 13.9342 12.808 13.9342C12.9183 13.9342 13.0184 13.8859 13.0909 13.8081C13.1633 13.7302 13.2083 13.6229 13.2083 13.5044V12.9301L12.4087 12.9294L12.4072 13.5036" fill="#003399"/>
<path d="M12.5906 13.2271C12.6344 13.2271 12.6699 13.1916 12.6699 13.1479C12.6699 13.1041 12.6344 13.0686 12.5906 13.0686C12.5468 13.0686 12.5114 13.1041 12.5114 13.1479C12.5114 13.1916 12.5468 13.2271 12.5906 13.2271Z" fill="white"/>
<path d="M13.0342 13.2275C13.078 13.2275 13.1135 13.192 13.1135 13.1482C13.1135 13.1045 13.078 13.069 13.0342 13.069C12.9904 13.069 12.955 13.1045 12.955 13.1482C12.955 13.192 12.9904 13.2275 13.0342 13.2275Z" fill="white"/>
<path d="M12.812 13.4405C12.8558 13.4405 12.8913 13.405 12.8913 13.3612C12.8913 13.3175 12.8558 13.282 12.812 13.282C12.7683 13.282 12.7328 13.3175 12.7328 13.3612C12.7328 13.405 12.7683 13.4405 12.812 13.4405Z" fill="white"/>
<path d="M12.5906 13.6634C12.6344 13.6634 12.6699 13.6279 12.6699 13.5841C12.6699 13.5404 12.6344 13.5049 12.5906 13.5049C12.5468 13.5049 12.5114 13.5404 12.5114 13.5841C12.5114 13.6279 12.5468 13.6634 12.5906 13.6634Z" fill="white"/>
<path d="M13.0338 13.6628C13.0776 13.6628 13.1131 13.6273 13.1131 13.5835C13.1131 13.5398 13.0776 13.5043 13.0338 13.5043C12.9901 13.5043 12.9546 13.5398 12.9546 13.5835C12.9546 13.6273 12.9901 13.6628 13.0338 13.6628Z" fill="white"/>
</g>
<defs>
<clipPath id="clip0_268_43298">
<rect width="32" height="24" fill="white"/>
</clipPath>
</defs>
</svg>
