<svg width="32" height="24" viewBox="0 0 32 24" fill="none" xmlns="http://www.w3.org/2000/svg">
<g clip-path="url(#clip0_268_43316)">
<path fill-rule="evenodd" clip-rule="evenodd" d="M0 0H32V24H0V0Z" fill="#F31930"/>
<path fill-rule="evenodd" clip-rule="evenodd" d="M20.3489 12.3737C20.3489 15.6845 17.6186 18.3682 14.2504 18.3682C10.8822 18.3682 8.1521 15.6844 8.1521 12.3737C8.1521 9.06295 10.8824 6.37915 14.2505 6.37915C17.6186 6.37915 20.349 9.063 20.349 12.3737L20.3489 12.3737Z" fill="white"/>
<path fill-rule="evenodd" clip-rule="evenodd" d="M20.6539 12.3734C20.6539 15.0219 18.4696 17.1689 15.7752 17.1689C13.0807 17.1689 10.8965 15.0219 10.8965 12.3734C10.8965 9.72488 13.0808 7.57788 15.7752 7.57788C18.4696 7.57788 20.6539 9.72488 20.6539 12.3734Z" fill="#F31830"/>
<path fill-rule="evenodd" clip-rule="evenodd" d="M21.5364 9.57324L21.4872 11.7891L19.4199 12.3504L21.4577 13.0761L21.4085 15.1082L22.7375 13.5213L24.7457 14.218L23.5841 12.515L25.0017 10.8216L22.826 11.4215L21.5364 9.57329L21.5364 9.57324Z" fill="white"/>
</g>
<defs>
<clipPath id="clip0_268_43316">
<rect width="32" height="24" fill="white"/>
</clipPath>
</defs>
</svg>
