<svg width="32" height="24" viewBox="0 0 32 24" fill="none" xmlns="http://www.w3.org/2000/svg">
<g clip-path="url(#clip0_268_43291)">
<path fill-rule="evenodd" clip-rule="evenodd" d="M0 0H45.6005V1.84615H0V0ZM0 3.69235H45.6005V5.5385H0V3.69235ZM0 7.3847H45.6005V9.23085H0V7.3847ZM0 11.0771H45.6005V12.9232H0V11.0771ZM0 14.7694H45.6005V16.6156H0V14.7694ZM0 18.4617H45.6005V20.3079H0V18.4617ZM0 22.1541H45.6005V24.0002H0V22.1541Z" fill="#BD3D44"/>
<path fill-rule="evenodd" clip-rule="evenodd" d="M0 1.84619H45.6005V3.69239H0V1.84619ZM0 5.53854H45.6005V7.38474H0V5.53854ZM0 9.23089H45.6005V11.0771H0V9.23089ZM0 12.9232H45.6005V14.7694H0V12.9232ZM0 16.6156H45.6005V18.4617H0V16.6156ZM0 20.3079H45.6005V22.1541H0V20.3079Z" fill="white"/>
<path fill-rule="evenodd" clip-rule="evenodd" d="M0 0H18.24V12.923H0V0Z" fill="#192F5D"/>
<path fill-rule="evenodd" clip-rule="evenodd" d="M1.52002 0.553101L1.68602 1.0638H2.22302L1.78852 1.37955L1.95452 1.8903L1.52002 1.5746L1.08552 1.8903L1.25152 1.37955L0.817017 1.0638H1.35402L1.52002 0.553101ZM4.56002 0.553101L4.72602 1.0638H5.26312L4.82857 1.37955L4.99457 1.8903L4.56002 1.5746L4.12557 1.8903L4.29152 1.37955L3.85702 1.0638H4.39407L4.56002 0.553101ZM7.60012 0.553101L7.76612 1.0638H8.30317L7.86867 1.37955L8.03467 1.8903L7.60017 1.5746L7.16567 1.8903L7.33162 1.37955L6.89712 1.0638H7.43422L7.60012 0.553101ZM10.6401 0.553101L10.806 1.0638H11.343L10.9086 1.37955L11.0745 1.8903L10.6401 1.5746L10.2056 1.8903L10.3716 1.37955L9.93702 1.0638H10.4741L10.6401 0.553101ZM13.6801 0.553101L13.8461 1.0638H14.3832L13.9487 1.37955L14.1147 1.8903L13.6801 1.5746L13.2457 1.8903L13.4116 1.37955L12.9771 1.0638H13.5142L13.6801 0.553101ZM16.7202 0.553101L16.8862 1.0638H17.4233L16.9888 1.37955L17.1548 1.8903L16.7203 1.5746L16.2857 1.8903L16.4517 1.37955L16.0172 1.0638H16.5543L16.7202 0.553101ZM3.04012 1.8454L3.20602 2.35615H3.74312L3.30862 2.6718L3.47462 3.1826L3.04012 2.86695L2.60562 3.1826L2.77157 2.67185L2.33707 2.35615H2.87417L3.04012 1.8454ZM6.08002 1.8454L6.24602 2.35615H6.78302L6.34852 2.6718L6.51452 3.1826L6.08002 2.86695L5.64552 3.1826L5.81152 2.67185L5.37697 2.35615H5.91407L6.08002 1.8454ZM9.12012 1.8454L9.28607 2.35615H9.82317L9.38862 2.6718L9.55462 3.1826L9.12007 2.86695L8.68562 3.1826L8.85157 2.67185L8.41707 2.35615H8.95412L9.12012 1.8454ZM12.1602 1.8454L12.3262 2.35615H12.8632L12.4287 2.6718L12.5947 3.1826L12.1602 2.86695L11.7257 3.1826L11.8917 2.67185L11.4572 2.35615H11.9943L12.1602 1.8454ZM15.2002 1.8454L15.3661 2.35615H15.9031L15.4686 2.6718L15.6346 3.1826L15.2001 2.86695L14.7656 3.1826L14.9316 2.67185L14.4971 2.35615H15.0342L15.2002 1.8454ZM1.52002 3.1377L1.68602 3.64845H2.22302L1.78852 3.96415L1.95452 4.47495L1.52002 4.1593L1.08552 4.47495L1.25152 3.9642L0.817017 3.6485H1.35402L1.52002 3.1377ZM4.56002 3.1377L4.72602 3.64845H5.26312L4.82857 3.96415L4.99452 4.47495L4.56002 4.15925L4.12557 4.47495L4.29152 3.9642L3.85702 3.6485H4.39407L4.56002 3.1377ZM7.60012 3.1377L7.76612 3.64845H8.30317L7.86867 3.96415L8.03467 4.4749L7.60017 4.15925L7.16567 4.4749L7.33162 3.96415L6.89712 3.64845H7.43422L7.60012 3.1377ZM10.6401 3.1377L10.806 3.64845H11.343L10.9086 3.96415L11.0745 4.47495L10.6401 4.1593L10.2056 4.47495L10.3716 3.9642L9.93702 3.6485H10.4741L10.6401 3.1377ZM13.6801 3.1377L13.8461 3.64845H14.3832L13.9487 3.96415L14.1147 4.4749L13.6801 4.15925L13.2457 4.4749L13.4116 3.96415L12.9771 3.64845H13.5142L13.6801 3.1377ZM16.7202 3.1377L16.8862 3.64845H17.4233L16.9888 3.96415L17.1548 4.4749L16.7203 4.15925L16.2857 4.4749L16.4517 3.96415L16.0172 3.64845H16.5543L16.7202 3.1377ZM3.04012 4.43L3.20602 4.9408H3.74312L3.30862 5.25645L3.47462 5.76725L3.04012 5.4516L2.60562 5.76725L2.77157 5.25645L2.33707 4.9408H2.87417L3.04012 4.43ZM6.08002 4.43L6.24602 4.9408H6.78302L6.34852 5.25645L6.51452 5.76725L6.08002 5.4516L5.64552 5.76725L5.81152 5.25645L5.37697 4.9408H5.91407L6.08002 4.43ZM9.12012 4.43L9.28607 4.9408H9.82317L9.38862 5.25645L9.55462 5.76725L9.12007 5.4516L8.68562 5.76725L8.85157 5.25645L8.41707 4.9408H8.95412L9.12012 4.43ZM12.1602 4.43L12.3262 4.9408H12.8632L12.4287 5.25645L12.5947 5.76725L12.1602 5.4516L11.7257 5.76725L11.8917 5.25645L11.4572 4.9408H11.9943L12.1602 4.43ZM15.2002 4.43L15.3661 4.9408H15.9031L15.4686 5.25645L15.6346 5.76725L15.2001 5.4516L14.7656 5.76725L14.9316 5.25645L14.4971 4.9408H15.0341L15.2002 4.43ZM1.52002 5.72235L1.68602 6.2331H2.22302L1.78852 6.5488L1.95452 7.05955L1.52002 6.7439L1.08552 7.05955L1.25152 6.5488L0.817017 6.2331H1.35402L1.52002 5.72235ZM4.56002 5.72235L4.72602 6.2331H5.26312L4.82857 6.5488L4.99457 7.05955L4.56002 6.7439L4.12557 7.05955L4.29152 6.5488L3.85702 6.2331H4.39407L4.56002 5.72235ZM7.60012 5.72235L7.76612 6.2331H8.30317L7.86867 6.5488L8.03467 7.05955L7.60017 6.7439L7.16567 7.05955L7.33162 6.5488L6.89712 6.2331H7.43422L7.60012 5.72235ZM10.6401 5.72235L10.806 6.2331H11.343L10.9086 6.5488L11.0745 7.05955L10.6401 6.7439L10.2056 7.05955L10.3716 6.5488L9.93702 6.2331H10.4741L10.6401 5.72235ZM13.6801 5.72235L13.8461 6.2331H14.3832L13.9487 6.5488L14.1147 7.05955L13.6801 6.7439L13.2457 7.05955L13.4116 6.5488L12.9771 6.2331H13.5142L13.6801 5.72235ZM16.7202 5.72235L16.8862 6.2331H17.4233L16.9888 6.5488L17.1548 7.05955L16.7203 6.7439L16.2857 7.05955L16.4517 6.5488L16.0172 6.2331H16.5543L16.7202 5.72235ZM3.04012 7.01465L3.20602 7.52545H3.74312L3.30862 7.8411L3.47462 8.3519L3.04012 8.03625L2.60562 8.3519L2.77157 7.8411L2.33707 7.52545H2.87417L3.04012 7.01465ZM6.08002 7.01465L6.24602 7.52545H6.78302L6.34852 7.8411L6.51452 8.3519L6.08002 8.03625L5.64552 8.3519L5.81152 7.8411L5.37697 7.52545H5.91407L6.08002 7.01465ZM9.12012 7.01465L9.28607 7.52545H9.82317L9.38862 7.8411L9.55462 8.3519L9.12007 8.03625L8.68562 8.3519L8.85157 7.8411L8.41707 7.52545H8.95412L9.12012 7.01465ZM12.1602 7.01465L12.3262 7.52545H12.8632L12.4287 7.8411L12.5947 8.3519L12.1602 8.03625L11.7257 8.3519L11.8917 7.8411L11.4572 7.52545H11.9943L12.1602 7.01465ZM15.2002 7.01465L15.3661 7.52545H15.9031L15.4686 7.8411L15.6346 8.3519L15.2001 8.03625L14.7656 8.3519L14.9316 7.8411L14.4971 7.52545H15.0341L15.2002 7.01465ZM1.52002 8.307L1.68602 8.81775H2.22302L1.78852 9.13345L1.95452 9.6442L1.52002 9.32855L1.08552 9.6442L1.25152 9.13345L0.817017 8.81775H1.35402L1.52002 8.307ZM4.56002 8.307L4.72602 8.81775H5.26312L4.82857 9.13345L4.99457 9.6442L4.56002 9.32855L4.12557 9.6442L4.29152 9.13345L3.85702 8.81775H4.39407L4.56002 8.307ZM7.60012 8.307L7.76612 8.81775H8.30317L7.86867 9.13345L8.03467 9.6442L7.60017 9.32855L7.16567 9.6442L7.33162 9.13345L6.89712 8.81775H7.43422L7.60012 8.307ZM10.6401 8.307L10.806 8.81775H11.343L10.9086 9.13345L11.0745 9.6442L10.6401 9.32855L10.2056 9.6442L10.3716 9.13345L9.93702 8.81775H10.4741L10.6401 8.307ZM13.6801 8.307L13.8461 8.81775H14.3832L13.9487 9.13345L14.1147 9.6442L13.6801 9.32855L13.2457 9.6442L13.4116 9.13345L12.9771 8.81775H13.5142L13.6801 8.307ZM16.7202 8.307L16.8862 8.81775H17.4233L16.9888 9.13345L17.1548 9.6442L16.7203 9.32855L16.2857 9.6442L16.4517 9.13345L16.0172 8.81775H16.5543L16.7202 8.307ZM3.04012 9.5993L3.20602 10.1101H3.74312L3.30862 10.4258L3.47462 10.9366L3.04012 10.6209L2.60562 10.9366L2.77157 10.4258L2.33707 10.1101H2.87417L3.04012 9.5993ZM6.08002 9.5993L6.24602 10.1101H6.78302L6.34852 10.4258L6.51452 10.9366L6.08002 10.6209L5.64552 10.9366L5.81152 10.4258L5.37697 10.1101H5.91407L6.08002 9.5993ZM9.12012 9.5993L9.28607 10.1101H9.82317L9.38862 10.4258L9.55462 10.9366L9.12007 10.6209L8.68562 10.9366L8.85157 10.4258L8.41707 10.1101H8.95412L9.12012 9.5993ZM12.1602 9.5993L12.3262 10.1101H12.8632L12.4287 10.4258L12.5947 10.9366L12.1602 10.6209L11.7257 10.9366L11.8917 10.4258L11.4572 10.1101H11.9943L12.1602 9.5993ZM15.2002 9.5993L15.3661 10.1101H15.9031L15.4686 10.4258L15.6346 10.9366L15.2001 10.6209L14.7656 10.9366L14.9316 10.4258L14.4971 10.1101H15.0341L15.2002 9.5993ZM1.52002 10.8917L1.68602 11.4024H2.22302L1.78852 11.7181L1.95452 12.2289L1.52002 11.9132L1.08552 12.2289L1.25152 11.7181L0.817017 11.4024H1.35402L1.52002 10.8917ZM4.56002 10.8917L4.72602 11.4024H5.26312L4.82857 11.7181L4.99457 12.2289L4.56002 11.9132L4.12557 12.2289L4.29152 11.7181L3.85702 11.4024H4.39407L4.56002 10.8917ZM7.60012 10.8917L7.76612 11.4024H8.30317L7.86867 11.7181L8.03467 12.2289L7.60017 11.9132L7.16567 12.2289L7.33162 11.7181L6.89712 11.4024H7.43422L7.60012 10.8917ZM10.6401 10.8917L10.806 11.4024H11.343L10.9086 11.7181L11.0745 12.2289L10.6401 11.9132L10.2056 12.2289L10.3716 11.7181L9.93702 11.4024H10.4741L10.6401 10.8917ZM13.6801 10.8917L13.8461 11.4024H14.3832L13.9487 11.7181L14.1147 12.2289L13.6801 11.9132L13.2457 12.2289L13.4116 11.7181L12.9771 11.4024H13.5142L13.6801 10.8917ZM16.7202 10.8917L16.8862 11.4024H17.4233L16.9888 11.7181L17.1548 12.2289L16.7203 11.9132L16.2857 12.2289L16.4517 11.7181L16.0172 11.4024H16.5543L16.7202 10.8917Z" fill="white"/>
</g>
<defs>
<clipPath id="clip0_268_43291">
<rect width="32" height="24" fill="white"/>
</clipPath>
</defs>
</svg>
